<mxfile host="app.diagrams.net" modified="2023-03-02T15:10:13.886Z" agent="5.0 (Windows NT 10.0; Win64; x64) AppleWebKit/537.36 (KHTML, like Gecko) Chrome/110.0.0.0 Safari/537.36" etag="8SoI6iEq234cCYKSZ9IA" version="20.8.23" type="github">
  <diagram name="Page-1" id="G_XXIx5RRsp61gUxp0QD">
    <mxGraphModel dx="1434" dy="768" grid="1" gridSize="10" guides="1" tooltips="1" connect="1" arrows="1" fold="1" page="1" pageScale="1" pageWidth="1169" pageHeight="827" math="0" shadow="0">
      <root>
        <mxCell id="0" />
        <mxCell id="1" parent="0" />
        <mxCell id="Aw5bu0roY7y4u5wxeEN_-1" value="" style="rounded=0;whiteSpace=wrap;html=1;" vertex="1" parent="1">
          <mxGeometry x="130" y="260" width="120" height="60" as="geometry" />
        </mxCell>
        <mxCell id="Aw5bu0roY7y4u5wxeEN_-12" value="" style="edgeStyle=orthogonalEdgeStyle;rounded=0;orthogonalLoop=1;jettySize=auto;html=1;" edge="1" parent="1" source="Aw5bu0roY7y4u5wxeEN_-2" target="Aw5bu0roY7y4u5wxeEN_-11">
          <mxGeometry relative="1" as="geometry" />
        </mxCell>
        <mxCell id="Aw5bu0roY7y4u5wxeEN_-2" value="GIT" style="text;strokeColor=none;fillColor=none;html=1;fontSize=24;fontStyle=1;verticalAlign=middle;align=center;" vertex="1" parent="1">
          <mxGeometry x="140" y="270" width="100" height="40" as="geometry" />
        </mxCell>
        <mxCell id="Aw5bu0roY7y4u5wxeEN_-16" value="" style="edgeStyle=orthogonalEdgeStyle;rounded=0;orthogonalLoop=1;jettySize=auto;html=1;" edge="1" parent="1" source="Aw5bu0roY7y4u5wxeEN_-3" target="Aw5bu0roY7y4u5wxeEN_-2">
          <mxGeometry relative="1" as="geometry" />
        </mxCell>
        <mxCell id="Aw5bu0roY7y4u5wxeEN_-3" value="Repo list local" style="text;html=1;strokeColor=none;fillColor=none;align=center;verticalAlign=middle;whiteSpace=wrap;rounded=0;" vertex="1" parent="1">
          <mxGeometry x="40" y="275" width="60" height="30" as="geometry" />
        </mxCell>
        <mxCell id="Aw5bu0roY7y4u5wxeEN_-5" value="Repo&amp;nbsp; ID output" style="text;html=1;strokeColor=none;fillColor=none;align=center;verticalAlign=middle;whiteSpace=wrap;rounded=0;" vertex="1" parent="1">
          <mxGeometry x="240" y="340" width="60" height="30" as="geometry" />
        </mxCell>
        <mxCell id="Aw5bu0roY7y4u5wxeEN_-7" value="" style="rounded=0;whiteSpace=wrap;html=1;" vertex="1" parent="1">
          <mxGeometry x="290" y="260" width="120" height="60" as="geometry" />
        </mxCell>
        <mxCell id="Aw5bu0roY7y4u5wxeEN_-13" value="" style="edgeStyle=orthogonalEdgeStyle;rounded=0;orthogonalLoop=1;jettySize=auto;html=1;" edge="1" parent="1" source="Aw5bu0roY7y4u5wxeEN_-9" target="Aw5bu0roY7y4u5wxeEN_-11">
          <mxGeometry relative="1" as="geometry" />
        </mxCell>
        <mxCell id="Aw5bu0roY7y4u5wxeEN_-9" value="Group" style="text;strokeColor=none;fillColor=none;html=1;fontSize=24;fontStyle=1;verticalAlign=middle;align=center;" vertex="1" parent="1">
          <mxGeometry x="300" y="270" width="100" height="40" as="geometry" />
        </mxCell>
        <mxCell id="Aw5bu0roY7y4u5wxeEN_-11" value="" style="rounded=0;whiteSpace=wrap;html=1;" vertex="1" parent="1">
          <mxGeometry x="180" y="80" width="190" height="90" as="geometry" />
        </mxCell>
        <mxCell id="Aw5bu0roY7y4u5wxeEN_-14" value="Group List" style="text;html=1;strokeColor=none;fillColor=none;align=center;verticalAlign=middle;whiteSpace=wrap;rounded=0;" vertex="1" parent="1">
          <mxGeometry x="360" y="220" width="60" height="30" as="geometry" />
        </mxCell>
        <mxCell id="Aw5bu0roY7y4u5wxeEN_-15" value="SBB (root)" style="text;strokeColor=none;fillColor=none;html=1;fontSize=24;fontStyle=1;verticalAlign=middle;align=center;" vertex="1" parent="1">
          <mxGeometry x="225" y="105" width="100" height="40" as="geometry" />
        </mxCell>
        <mxCell id="Aw5bu0roY7y4u5wxeEN_-17" value="Repo ID outputs" style="text;html=1;strokeColor=none;fillColor=none;align=center;verticalAlign=middle;whiteSpace=wrap;rounded=0;" vertex="1" parent="1">
          <mxGeometry x="130" y="220" width="60" height="30" as="geometry" />
        </mxCell>
        <mxCell id="Aw5bu0roY7y4u5wxeEN_-19" value="" style="edgeStyle=orthogonalEdgeStyle;rounded=0;orthogonalLoop=1;jettySize=auto;html=1;" edge="1" parent="1" source="Aw5bu0roY7y4u5wxeEN_-18" target="Aw5bu0roY7y4u5wxeEN_-9">
          <mxGeometry relative="1" as="geometry" />
        </mxCell>
        <mxCell id="Aw5bu0roY7y4u5wxeEN_-18" value="Repo list local" style="text;html=1;strokeColor=none;fillColor=none;align=center;verticalAlign=middle;whiteSpace=wrap;rounded=0;" vertex="1" parent="1">
          <mxGeometry x="440" y="275" width="60" height="30" as="geometry" />
        </mxCell>
      </root>
    </mxGraphModel>
  </diagram>
</mxfile>
